# xmcd
# 
# Track frame offsets:
#     183
#     4580
#     56213
#     77670
#     116650
#     166330
#     203415
#     231860
# 
# Disc length: 3773
# 
# Revision: 1
# Processed by: cddbd v1.5.2PL0 Copyright (c) Steve Scherf et al.
# Submitted via: BonkEnc v1.0.8
# 
DISCID=5b0ebb08
DTITLE=Dave Liebman, Eddie Gomez, Bob Moses - Spirit Renewed
DYEAR=1982
DGENRE=Contemporary Jazz
TTITLE0=Announcement
TTITLE1=The Night Has A Thousand Eyes
TTITLE2=Off A Bird
TTITLE3=Betrayal - Fourth Wall
TTITLE4=Mixed Blessing
TTITLE5=Lava Flow
TTITLE6=Our Life
TTITLE7=Spirit Renewed - Lonely Woman
EXTD=YEAR: 1982
EXTT0=
EXTT1=
EXTT2=
EXTT3=
EXTT4=
EXTT5=
EXTT6=
EXTT7=
PLAYORDER=
